
<svg width="1049.219" height="340.158" viewBox="0 0 277.606 90" xmlns="http://www.w3.org/2000/svg">
<path fill="#fff" d="M20.463 0A20.418 20.418 0 000 20.463v49.074A20.418 20.418 0 0020.463 90h49.074A20.419 20.419 0 0090 69.537V20.463A20.419 20.419 0 0069.537 0zm90.44 10.26a7.257 7.257 0 00-7.273 7.273 7.257 7.257 0 007.273 7.273h159.43a7.257 7.257 0 007.273-7.273 7.257 7.257 0 00-7.273-7.273zm0 24.428a7.257 7.257 0 00-7.273 7.273 7.257 7.257 0 007.273 7.273h115.454a7.257 7.257 0 007.273-7.273 7.257 7.257 0 00-7.273-7.273zm0 24.428a7.257 7.257 0 00-7.273 7.273 7.257 7.257 0 007.273 7.273h85.455a7.257 7.257 0 007.272-7.273 7.257 7.257 0 00-7.272-7.273z"/></svg>